<?xml version="1.0" encoding="UTF-8"?>
<svg width="390px" height="353px" viewBox="0 0 390 353" version="1.1" xmlns="http://www.w3.org/2000/svg" xmlns:xlink="http://www.w3.org/1999/xlink">
    <!-- Generator: Sketch 47.1 (45422) - http://www.bohemiancoding.com/sketch -->
    <title>Shape</title>
    <desc>Created with Sketch.</desc>
    <defs></defs>
    <g id="Page-1" stroke="none" stroke-width="1" fill="none" fill-rule="evenodd">
        <g id="empty-folder" fill-rule="nonzero" fill="#F3F7F8">
            <path d="M383.888093,107.518 C379.410093,102.327 373.020093,99.204 366.214093,98.832 L366.214093,46.36 C366.214093,20.797 345.417093,0 319.853093,0 L244.575093,0 C219.523093,0 206.224093,10.578 196.513093,18.303 C188.706093,24.511 183.995093,28.259 173.887093,28.259 L65.0980931,28.259 C42.3180931,28.259 23.7850931,46.321 23.7850931,68.522 L23.7850931,98.833 C16.9790931,99.205 10.5890931,102.328 6.11109313,107.519 C1.33109313,113.06 -0.800906871,120.407 0.272093129,127.644 L30.4660931,331.446 C32.2940931,343.784 42.8830931,352.921 55.3560931,352.921 L334.642093,352.921 C347.115093,352.921 357.705093,343.784 359.533093,331.447 L389.728093,127.645 C390.800093,120.406 388.668093,113.059 383.888093,107.518 Z M65.0980931,58.554 L173.886093,58.554 C194.573093,58.554 206.105093,49.382 215.370093,42.012 C223.922093,35.21 230.102093,30.296 244.574093,30.296 L319.852093,30.296 C328.710093,30.296 335.918093,37.502 335.918093,46.361 L335.918093,98.795 L54.0800931,98.795 L54.0800931,68.522 C54.0800931,62.283 59.6820931,58.554 65.0980931,58.554 Z" id="Shape"></path>
        </g>
    </g>
</svg>