<?xml version="1.0" encoding="UTF-8"?>
<svg width="61px" height="74px" viewBox="0 0 61 74" version="1.1" xmlns="http://www.w3.org/2000/svg" xmlns:xlink="http://www.w3.org/1999/xlink">
    <!-- Generator: Sketch 47.1 (45422) - http://www.bohemiancoding.com/sketch -->
    <title>Group 2</title>
    <desc>Created with Sketch.</desc>
    <defs></defs>
    <g id="Page-1" stroke="none" stroke-width="1" fill="none" fill-rule="evenodd">
        <g id="Group-2" transform="translate(2.000000, 2.000000)">
            <g id="ic_insert_drive_file_black_24px" stroke="#4CA2FF" stroke-width="4" fill-rule="nonzero">
                <path d="M7.125,0 C3.20625,0 0.035625,3.15 0.035625,7 L0,63 C0,66.85 3.170625,70 7.089375,70 L49.875,70 C53.79375,70 57,66.85 57,63 L57,21 L35.625,0 L7.125,0 Z" id="Shape"></path>
            </g>
            <path d="M46.5925926,27 L11.4074074,27 C10.6305185,27 10,27.894 10,29 C10,30.106 10.6305185,31 11.4074074,31 L46.5925926,31 C47.3694815,31 48,30.106 48,29 C48,27.894 47.3694815,27 46.5925926,27 Z" id="Shape" fill="#4CA2FF" fill-rule="nonzero"></path>
            <path d="M11.4166667,22 L25.5833333,22 C26.3653333,22 27,21.106 27,20 C27,18.894 26.3653333,18 25.5833333,18 L11.4166667,18 C10.6346667,18 10,18.894 10,20 C10,21.106 10.6346667,22 11.4166667,22 Z" id="Shape" fill="#4CA2FF" fill-rule="nonzero"></path>
            <path d="M46.5925926,36 L11.4074074,36 C10.6305185,36 10,36.894 10,38 C10,39.106 10.6305185,40 11.4074074,40 L46.5925926,40 C47.3694815,40 48,39.106 48,38 C48,36.894 47.3694815,36 46.5925926,36 Z" id="Shape" fill="#4CA2FF" fill-rule="nonzero"></path>
            <path d="M46.5925926,45 L11.4074074,45 C10.6305185,45 10,45.894 10,47 C10,48.106 10.6305185,49 11.4074074,49 L46.5925926,49 C47.3694815,49 48,48.106 48,47 C48,45.894 47.3694815,45 46.5925926,45 Z" id="Shape" fill="#4CA2FF" fill-rule="nonzero"></path>
            <path d="M46.5925926,54 L11.4074074,54 C10.6305185,54 10,54.894 10,56 C10,57.106 10.6305185,58 11.4074074,58 L46.5925926,58 C47.3694815,58 48,57.106 48,56 C48,54.894 47.3694815,54 46.5925926,54 Z" id="Shape" fill="#4CA2FF" fill-rule="nonzero"></path>
            <polyline id="Path-4" stroke="#4CA2FF" stroke-width="4" points="35.949837 0.404280585 35.949837 20.710045 57.051396 20.710045"></polyline>
        </g>
    </g>
</svg>