<?xml version="1.0" encoding="UTF-8"?>
<svg width="49px" height="60px" viewBox="0 0 49 60" version="1.1" xmlns="http://www.w3.org/2000/svg" xmlns:xlink="http://www.w3.org/1999/xlink">
    <!-- Generator: Sketch 47.1 (45422) - http://www.bohemiancoding.com/sketch -->
    <title>Group</title>
    <desc>Created with Sketch.</desc>
    <defs></defs>
    <g id="Page-1" stroke="none" stroke-width="1" fill="none" fill-rule="evenodd">
        <g id="file" fill-rule="nonzero" fill="#4CA2FF">
            <g id="Group">
                <path d="M43.8875,59.7315588 L4.85,59.7315588 C2.3875,59.7315588 0.385714286,57.7203529 0.385714286,55.2462647 L0.385714286,4.48529412 C0.385714286,2.01120588 2.3875,0 4.85,0 L33.1982143,0 C33.6910714,0 34.0910714,0.401882353 34.0910714,0.897058824 C34.0910714,1.39223529 33.6910714,1.79411765 33.1982143,1.79411765 L4.85,1.79411765 C3.37321429,1.79411765 2.17142857,3.00155882 2.17142857,4.48529412 L2.17142857,55.2462647 C2.17142857,56.73 3.37321429,57.9374412 4.85,57.9374412 L43.8875,57.9374412 C45.3642857,57.9374412 46.5660714,56.73 46.5660714,55.2462647 L46.5660714,15.6142059 C46.5660714,15.1190294 46.9660714,14.7171471 47.4589286,14.7171471 C47.9517857,14.7171471 48.3517857,15.1190294 48.3517857,15.6142059 L48.3517857,55.2462647 C48.3517857,57.7203529 46.35,59.7315588 43.8875,59.7315588 Z" id="Shape"></path>
                <path d="M47.4589286,16.5112647 L33.1982143,16.5112647 C32.7053571,16.5112647 32.3053571,16.1093824 32.3053571,15.6142059 L32.3053571,1.28638235 C32.3053571,0.791205882 32.7053571,0.389323529 33.1982143,0.389323529 C33.6910714,0.389323529 34.0910714,0.791205882 34.0910714,1.28638235 L34.0910714,14.7171471 L47.4589286,14.7171471 C47.9517857,14.7171471 48.3517857,15.1190294 48.3517857,15.6142059 C48.3517857,16.1093824 47.9517857,16.5112647 47.4589286,16.5112647 Z" id="Shape"></path>
                <path d="M47.4589286,16.5112647 C47.2267857,16.5112647 46.9946429,16.4197647 46.8196429,16.2403529 L32.5589286,1.52320588 C32.2160714,1.16976471 32.2232143,0.599235294 32.5767857,0.254764706 C32.9267857,-0.0879117647 33.4928571,-0.0825294118 33.8392857,0.272705882 L48.1,14.9898529 C48.4428571,15.3432941 48.4357143,15.9138235 48.0821429,16.2582941 C47.9089286,16.4269412 47.6839286,16.5112647 47.4589286,16.5112647 Z" id="Shape"></path>
            </g>
        </g>
    </g>
</svg>