<?xml version="1.0" encoding="UTF-8"?>
<svg width="151px" height="123px" viewBox="0 0 151 123" version="1.1" xmlns="http://www.w3.org/2000/svg" xmlns:xlink="http://www.w3.org/1999/xlink">
    <!-- Generator: Sketch 47.1 (45422) - http://www.bohemiancoding.com/sketch -->
    <title>cloud (2)</title>
    <desc>Created with Sketch.</desc>
    <defs></defs>
    <g id="Page-1" stroke="none" stroke-width="1" fill="none" fill-rule="evenodd">
        <g id="cloud-(2)" fill-rule="nonzero">
            <path d="M121.762625,38.0095 C117.355312,16.036 98.2349375,0 75.5,0 C56.6155625,0 39.6658125,11.3145 32.2385,28.5095 C14.3921875,28.937 0,43.681 0,61.75 C0,80.085 14.816875,95 33.03125,95 L122.6875,95 C138.297125,95 151,82.213 151,66.5 C151,50.4735 137.570437,37.601 121.762625,38.0095 Z" id="Shape" fill="#4CA2FF"></path>
            <path d="M99.3461538,75.5 C98.9298462,75.5 98.523,75.5095 98.1256154,75.5285 C93.9152308,58.9605 78.9470769,47 61.5,47 C48.0173077,47 35.4902308,54.3625 28.7536154,66 C28.6306154,66 28.5076154,66 28.3846154,66 C12.7352308,66 0,78.787 0,94.5 C0,110.213 12.7352308,123 28.3846154,123 L99.3461538,123 C112.393615,123 123,112.3505 123,99.25 C123,86.1495 112.393615,75.5 99.3461538,75.5 Z" id="Shape" fill="#C5E0FC"></path>
        </g>
    </g>
</svg>