<?xml version="1.0" encoding="UTF-8"?>
<svg width="68px" height="68px" viewBox="0 0 68 68" version="1.1" xmlns="http://www.w3.org/2000/svg" xmlns:xlink="http://www.w3.org/1999/xlink">
    <!-- Generator: Sketch 47.1 (45422) - http://www.bohemiancoding.com/sketch -->
    <title>settings (2)</title>
    <desc>Created with Sketch.</desc>
    <defs></defs>
    <g id="Page-1" stroke="none" stroke-width="1" fill="none" fill-rule="evenodd">
        <g id="settings-(2)" transform="translate(2.000000, 2.000000)" stroke="#4CA1FE" stroke-width="4" fill-rule="nonzero">
            <path d="M63.7311914,35.1292187 C63.7311914,35.3274609 63.5870898,35.4983594 63.3958203,35.527207 C62.0994531,35.7212109 60.7686328,35.9071484 59.4402734,36.0806445 C57.9694531,36.2723242 56.7660547,37.3143945 56.3742187,38.7357227 C55.8233789,40.7342773 55.0241211,42.6632422 53.9987305,44.4686133 C53.2696094,45.7522656 53.3829492,47.3413477 54.2874805,48.5171289 C55.1045117,49.5791602 55.9142969,50.6522656 56.6942773,51.7066406 C56.8093945,51.8620898 56.7902539,52.0852148 56.6501172,52.2253516 L52.2249414,56.6503906 C52.084668,56.7906641 51.8616797,56.8093945 51.7063672,56.6946875 C50.654043,55.9160742 49.5806641,55.1062891 48.5167187,54.2877539 C47.3410742,53.3830859 45.7521289,53.2697461 44.4686133,53.9987305 C42.6632422,55.0241211 40.7342773,55.8235156 38.7354492,56.3744922 C37.3143945,56.7661914 36.2723242,57.9695898 36.0802344,59.4405469 C35.9070117,60.7697266 35.7208008,62.1005469 35.5269336,63.3960937 C35.4983594,63.5873633 35.3271875,63.7314648 35.1289453,63.7314648 L28.870918,63.7314648 C28.6726758,63.7314648 28.5015039,63.5873633 28.4729297,63.395957 C28.2794727,62.1019141 28.093125,60.7710937 27.9196289,59.4406836 C27.7278125,57.9697266 26.6854687,56.7663281 25.2644141,56.3746289 C23.2654492,55.8236523 21.3364844,55.0242578 19.53125,53.9987305 C18.9683789,53.6792187 18.3467187,53.5214453 17.7271094,53.5214453 C16.9335937,53.5214453 16.1432227,53.7798437 15.4832812,54.2880273 C14.4191992,55.1065625 13.345957,55.9163477 12.2936328,56.6949609 C12.1380469,56.809668 11.915332,56.7909375 11.7751953,56.6506641 L7.35001953,52.225625 C7.20974609,52.0853516 7.19060547,51.8625 7.30572266,51.7070508 C8.08515625,50.6533594 8.89480469,49.5802539 9.71251953,48.5174023 C10.6169141,47.3416211 10.7303906,45.7528125 10.001543,44.4692969 C8.97574219,42.6633789 8.17662109,40.7345508 7.62578125,38.7361328 C7.23408203,37.3150781 6.03068359,36.2728711 4.55986328,36.0810547 C3.23205078,35.907832 1.90109375,35.7214844 0.604042969,35.5276172 C0.412773437,35.4989063 0.268671875,35.3278711 0.268671875,35.1296289 L0.268671875,28.8714648 C0.268671875,28.6732227 0.412773437,28.5021875 0.604042969,28.4734766 C1.90109375,28.2794727 3.23191406,28.0932617 4.55958984,27.9200391 C6.03054687,27.7283594 7.23394531,26.6861523 7.62564453,25.2649609 C8.17621094,23.2666797 8.97560547,21.3377148 10.0014062,19.5317969 C10.7303906,18.2481445 10.6169141,16.6591992 9.71251953,15.4836914 C8.89699219,14.4233008 8.08720703,13.350332 7.30572266,12.294043 C7.19087891,12.1385938 7.20988281,11.9154688 7.35001953,11.7754688 L11.7749219,7.35029297 C11.9149219,7.21001953 12.1379102,7.19128906 12.2933594,7.30599609 C13.3456836,8.08447266 14.4189258,8.89425781 15.4830078,9.71292969 C16.6587891,10.6171875 18.2475977,10.7308008 19.5313867,10.0016797 C21.3364844,8.97628906 23.2654492,8.17689453 25.2642773,7.62591797 C26.6854687,7.23421875 27.7278125,6.03082031 27.9196289,4.55986328 C28.0932617,3.22945313 28.2793359,1.89863281 28.4730664,0.604179688 C28.5016406,0.413183594 28.6728125,0.268945313 28.8710547,0.268945313 L35.129082,0.268945313 C35.3273242,0.268945313 35.4984961,0.413046875 35.5270703,0.604316406 C35.7208008,1.89835938 35.906875,3.22904297 36.0805078,4.55986328 C36.2723242,6.03082031 37.314668,7.23421875 38.7357227,7.62591797 C40.7345508,8.17689453 42.6633789,8.97628906 44.4688867,10.0016797 C45.7524023,10.7303906 47.3413477,10.6171875 48.5168555,9.71265625 C49.5809375,8.89412109 50.6541797,8.08433594 51.7063672,7.30585938 C51.8618164,7.19074219 52.0849414,7.20974609 52.2250781,7.35015625 L56.6501172,11.7751953 C56.7903906,11.9154688 56.8092578,12.138457 56.6944141,12.2937695 C55.9144336,13.348418 55.1046484,14.4213867 54.2876172,15.483418 C53.3832227,16.6593359 53.2697461,18.2482813 53.9988672,19.5319336 C55.0243945,21.3373047 55.8236523,23.2661328 56.3746289,25.2649609 C56.7663281,26.6860156 57.97,27.7280859 59.4404102,27.9197656 C60.7687695,28.093125 62.0997266,28.2793359 63.3962305,28.4732031 C63.5875,28.5019141 63.7316016,28.6729492 63.7316016,28.8711914 L63.7316016,35.1292187 L63.7311914,35.1292187 Z" id="Shape"></path>
            <path d="M32,16.8058984 C23.621875,16.8058984 16.8058984,23.621875 16.8058984,32 C16.8058984,40.378125 23.621875,47.1941016 32,47.1941016 C40.378125,47.1941016 47.1941016,40.378125 47.1941016,32 C47.1941016,23.621875 40.378125,16.8058984 32,16.8058984 Z" id="Shape"></path>
        </g>
    </g>
</svg>